<svg xmlns="http://www.w3.org/2000/svg" viewBox="0 0 16 16"><path fill="#FFF" d="M3.5 15h9c.275 0 .5-.225.5-.5V5h-1.5c-.827 0-1.5-.673-1.5-1.5V1H3.5c-.275 0-.5.225-.5.5v13c0 .275.225.5.5.5z"/><path fill="#FFF" d="M13 4v-.086a.496.496 0 00-.146-.353L11 1.707V3.5c0 .275.225.5.5.5H13z"/><path opacity=".64" fill="#605E5C" d="M13.56 2.853L11.146.44A1.51 1.51 0 0010.086 0H3.5C2.673 0 2 .673 2 1.5v13c0 .827.673 1.5 1.5 1.5h9c.827 0 1.5-.673 1.5-1.5V3.914c0-.4-.156-.777-.44-1.06zm-.707.708c.095.094.147.22.147.353V4h-1.5a.501.501 0 01-.5-.5V1.707l1.854 1.854zM12.5 15h-9a.501.501 0 01-.5-.5v-13c0-.275.225-.5.5-.5H10v2.5c0 .827.673 1.5 1.5 1.5H13v9.5c0 .275-.225.5-.5.5z"/><path fill="#BDBBB8" d="M11.556 13H4.444C4.2 13 4 12.776 4 12.5s.199-.5.444-.5h7.112c.245 0 .444.224.444.5s-.199.5-.444.5zM11.556 11H4.444C4.2 11 4 10.776 4 10.5s.199-.5.444-.5h7.112c.245 0 .444.224.444.5s-.199.5-.444.5zM11.556 9H4.444C4.2 9 4 8.776 4 8.5s.199-.5.444-.5h7.112c.245 0 .444.224.444.5s-.199.5-.444.5zM11.556 7H4.444C4.2 7 4 6.776 4 6.5s.199-.5.444-.5h7.112c.245 0 .444.224.444.5s-.199.5-.444.5z"/></svg>