<svg id="svg" version="1.1" xmlns="http://www.w3.org/2000/svg" xmlns:xlink="http://www.w3.org/1999/xlink" width="400" height="400" viewBox="0, 0, 400,400"><g id="svgg"><path id="path0" d="M168.195 208.240 C 163.774 219.116,150.319 231.183,136.480 236.684 L 133.920 237.702 133.836 248.451 C 133.789 254.363,133.861 259.199,133.996 259.198 C 134.513 259.194,141.026 256.548,144.189 255.056 C 150.126 252.255,157.038 247.767,161.770 243.640 C 163.057 242.518,164.193 241.600,164.295 241.600 C 164.397 241.600,164.480 261.760,164.480 286.400 L 164.480 331.200 176.480 331.200 L 188.480 331.200 188.480 268.640 L 188.480 206.080 178.777 206.080 L 169.074 206.080 168.195 208.240 M261.760 206.885 C 244.194 209.865,231.991 222.176,227.056 241.895 C 223.053 257.895,223.054 283.271,227.060 299.246 C 233.475 324.829,254.233 337.863,278.732 331.692 C 299.619 326.430,311.703 302.409,305.476 278.528 C 298.760 252.769,268.982 241.571,251.447 258.210 L 248.612 260.899 248.804 258.690 C 250.630 237.666,255.026 228.536,264.343 226.417 C 272.983 224.452,279.302 228.500,281.175 237.200 C 281.636 239.339,281.800 239.678,282.374 239.663 C 283.921 239.623,304.315 237.232,304.476 237.071 C 305.116 236.430,302.338 227.558,300.287 223.697 C 293.265 210.476,278.521 204.042,261.760 206.885 M272.160 268.860 C 277.099 270.467,280.779 274.849,282.593 281.280 C 283.727 285.301,283.737 296.984,282.610 301.120 C 277.496 319.884,254.882 316.303,251.371 296.173 C 248.124 277.551,258.197 264.316,272.160 268.860 " stroke="none" fill="#fbfbfc" fill-rule="evenodd"></path><path id="path1" d="M243.826 38.719 C 217.578 41.097,193.262 55.416,179.562 76.563 C 178.794 77.749,178.002 78.720,177.802 78.719 C 176.056 78.714,171.034 77.473,168.160 76.336 C 109.999 53.331,53.473 113.020,80.065 169.360 L 81.386 172.160 86.853 172.163 C 98.868 172.171,111.993 174.740,123.549 179.346 C 123.923 179.495,124.890 178.510,127.211 175.615 C 144.509 154.032,172.138 138.010,199.360 133.775 C 207.539 132.503,209.756 132.338,218.560 132.350 C 264.317 132.408,305.208 158.132,325.331 199.519 C 327.652 204.291,327.311 204.061,332.160 204.123 C 337.529 204.192,345.369 205.373,350.844 206.938 C 353.685 207.750,353.691 207.750,355.804 207.188 C 373.233 202.549,388.526 188.210,394.105 171.274 C 407.096 131.847,374.988 92.758,333.920 98.005 L 332.000 98.251 331.081 95.605 C 318.525 59.469,281.468 35.310,243.826 38.719 M209.014 146.884 C 180.948 149.810,157.064 162.433,138.787 184.000 C 126.713 198.247,119.112 218.651,117.894 240.080 L 117.698 243.520 110.689 243.520 L 103.680 243.520 103.680 240.354 C 103.680 226.915,107.744 210.220,114.539 195.747 C 115.430 193.848,116.160 192.176,116.160 192.033 C 116.160 191.700,108.851 189.323,105.280 188.494 C 50.800 175.845,-0.890 220.304,3.171 276.320 C 6.029 315.748,35.726 347.431,75.520 353.504 C 80.099 354.202,327.809 354.594,335.354 353.915 C 378.996 349.984,407.479 306.027,393.410 264.320 C 383.521 235.007,353.317 215.281,323.360 218.571 C 317.166 219.252,317.960 219.640,316.462 215.200 C 309.598 194.851,292.698 173.981,273.440 162.071 C 254.616 150.430,230.205 144.675,209.014 146.884 M188.480 268.640 L 188.480 331.200 176.480 331.200 L 164.480 331.200 164.480 286.400 C 164.480 261.760,164.397 241.600,164.295 241.600 C 164.193 241.600,163.057 242.518,161.770 243.640 C 157.038 247.767,150.126 252.255,144.189 255.056 C 141.026 256.548,134.513 259.194,133.996 259.198 C 133.861 259.199,133.789 254.363,133.836 248.451 L 133.920 237.702 136.480 236.684 C 150.319 231.183,163.774 219.116,168.195 208.240 L 169.074 206.080 178.777 206.080 L 188.480 206.080 188.480 268.640 M275.840 206.726 C 289.017 208.759,298.487 216.722,302.695 229.307 C 303.768 232.517,304.750 236.797,304.476 237.071 C 304.315 237.232,283.921 239.623,282.374 239.663 C 281.800 239.678,281.636 239.339,281.175 237.200 C 279.302 228.500,272.983 224.452,264.343 226.417 C 255.026 228.536,250.630 237.666,248.804 258.690 L 248.612 260.899 251.447 258.210 C 268.982 241.571,298.760 252.769,305.476 278.528 C 307.441 286.064,307.377 296.550,305.318 304.480 C 296.269 339.335,248.097 343.691,231.443 311.160 C 222.570 293.830,221.384 257.330,228.983 235.497 C 236.047 215.204,255.073 203.521,275.840 206.726 M264.506 268.191 C 254.418 269.679,248.828 281.588,251.371 296.173 C 254.882 316.303,277.496 319.884,282.610 301.120 C 283.737 296.984,283.727 285.301,282.593 281.280 C 279.938 271.864,273.109 266.922,264.506 268.191 " stroke="none" fill="#0404fc" fill-rule="evenodd"></path></g></svg>